<?xml version="1.0" standalone="no"?>
<!DOCTYPE svg PUBLIC "-//W3C//DTD SVG 20010904//EN"
 "http://www.w3.org/TR/2001/REC-SVG-20010904/DTD/svg10.dtd">
<svg version="1.0" xmlns="http://www.w3.org/2000/svg"
 width="847.000000pt" height="924.000000pt" viewBox="0 0 847.000000 924.000000"
 preserveAspectRatio="xMidYMid meet">

<g transform="translate(0.000000,924.000000) scale(0.100000,-0.100000)"
fill="#000000" stroke="none">
<path d="M2310 8865 c-38 -14 -82 -24 -105 -22 -38 2 -40 1 -38 -25 2 -31 -9
-34 -53 -18 -50 19 -84 2 -176 -88 -82 -80 -88 -88 -88 -127 0 -60 22 -85 73
-85 37 0 48 -6 87 -45 24 -25 59 -50 78 -56 24 -8 38 -21 48 -46 10 -22 25
-38 44 -45 24 -8 30 -16 30 -38 0 -22 -9 -33 -42 -54 -24 -14 -61 -42 -82 -61
l-39 -35 12 -100 c6 -55 11 -147 11 -204 0 -121 12 -144 81 -165 24 -7 58 -24
76 -38 18 -14 50 -27 73 -30 36 -5 40 -9 40 -33 0 -34 23 -54 82 -70 87 -23
103 -78 27 -91 -40 -6 -125 -47 -142 -67 -8 -10 -10 -49 -8 -116 l2 -102 -80
-94 c-66 -77 -81 -101 -81 -128 0 -37 -37 -82 -67 -82 -27 0 -76 -34 -90 -61
-6 -13 -28 -60 -48 -104 -41 -91 -80 -137 -146 -171 -36 -18 -66 -49 -129
-131 -108 -141 -110 -143 -179 -143 -31 0 -80 -6 -109 -14 -44 -11 -55 -11
-72 1 -11 8 -20 20 -20 27 0 8 -8 24 -18 36 -34 42 -71 22 -207 -117 -138
-139 -151 -164 -118 -231 15 -31 29 -41 81 -62 34 -14 67 -31 71 -39 6 -8 3
-34 -6 -64 -8 -29 -12 -64 -8 -83 8 -47 48 -90 90 -98 36 -7 55 -30 55 -64 0
-11 14 -52 30 -91 35 -82 53 -164 45 -203 -4 -17 -18 -33 -37 -43 -44 -21 -55
-19 -73 14 l-15 29 -54 -12 c-31 -7 -66 -21 -80 -30 -32 -20 -59 -20 -99 1
-23 12 -63 17 -145 19 l-114 2 -14 -33 c-16 -39 -33 -47 -83 -39 -53 8 -73
-13 -69 -75 3 -40 6 -46 25 -45 15 0 23 -7 27 -26 15 -75 152 -195 265 -231
l69 -22 87 22 c47 13 88 21 91 19 2 -3 -5 -16 -16 -30 -25 -32 -82 -59 -184
-88 l-79 -22 -29 22 c-37 27 -72 23 -76 -9 -7 -44 9 -71 91 -164 46 -50 106
-124 135 -163 56 -77 116 -136 180 -179 39 -26 45 -27 122 -20 66 6 102 16
192 56 62 28 118 55 126 61 8 7 27 35 43 63 24 41 29 62 29 116 0 83 9 131 24
126 6 -2 10 -16 8 -31 -4 -36 16 -96 40 -122 18 -21 19 -24 4 -52 -22 -43 -20
-83 9 -152 32 -76 32 -136 1 -198 -40 -79 -45 -113 -30 -184 7 -34 13 -94 14
-132 0 -63 1 -68 20 -63 23 6 25 -1 6 -25 -17 -23 1 -135 34 -218 36 -90 40
-108 55 -261 9 -95 24 -175 41 -230 38 -121 135 -328 193 -412 37 -53 58 -96
77 -162 14 -49 31 -101 38 -115 7 -14 16 -55 19 -92 12 -138 100 -351 179
-437 84 -90 108 -143 228 -496 15 -44 31 -107 35 -140 17 -144 150 -332 286
-405 72 -38 103 -37 198 5 77 35 111 73 111 125 0 82 18 96 179 140 41 11 76
22 79 25 3 3 -2 19 -12 35 -21 37 -16 56 35 117 21 26 39 58 39 70 0 42 33 63
99 62 32 -1 64 2 70 5 14 9 14 169 0 292 -14 117 -5 160 56 266 25 43 56 115
69 160 39 136 40 145 18 164 -15 13 -18 25 -15 58 4 30 -1 58 -17 95 -21 47
-22 56 -10 91 13 40 13 45 -15 120 -21 57 -15 112 22 186 44 90 95 114 164 79
42 -22 57 -10 109 87 l45 83 61 -3 c47 -3 74 2 126 23 37 15 73 34 80 42 7 9
13 42 13 76 1 56 3 62 37 92 20 17 63 44 95 60 91 45 114 65 138 119 24 54 57
89 116 124 47 29 141 129 214 231 32 45 71 93 86 105 35 30 52 62 44 86 -8 26
34 50 47 26 12 -21 40 -20 86 3 20 10 61 26 89 35 67 22 126 79 182 176 46 81
49 116 15 181 -25 50 19 96 118 125 74 22 127 54 144 86 14 28 14 28 34 8 26
-26 54 -25 96 1 25 15 42 18 68 13 32 -6 37 -4 46 21 15 40 12 72 -15 158 -18
56 -25 100 -25 158 0 76 -1 80 -25 89 -17 6 -25 17 -25 33 0 14 -13 41 -30 62
-35 45 -36 51 -10 90 23 34 26 83 8 108 -7 9 -38 25 -70 37 -54 20 -88 52 -88
83 0 8 15 28 34 45 19 17 37 40 41 51 6 19 51 41 85 41 9 0 25 9 35 20 16 18
16 20 -5 54 -15 25 -33 39 -59 46 -50 13 -129 74 -137 105 -7 27 -2 37 48 94
l36 42 14 -27 c12 -24 19 -27 77 -31 50 -3 71 -10 94 -29 35 -29 47 -30 81 -3
l26 20 9 -23 c13 -35 33 -166 27 -176 -12 -19 22 -40 91 -57 40 -9 81 -14 90
-10 10 4 105 11 212 16 199 9 245 3 221 -26 -6 -7 -8 -24 -5 -38 8 -30 -30
-110 -70 -147 -14 -14 -50 -36 -78 -50 -106 -51 -124 -141 -58 -285 29 -63 34
-68 46 -52 12 16 13 16 19 -7 7 -29 28 -38 61 -26 26 10 27 13 43 124 7 47 18
76 33 92 12 13 25 24 28 24 7 0 41 -122 65 -230 8 -36 20 -78 26 -95 7 -16 18
-72 26 -124 8 -51 17 -97 20 -102 3 -5 25 -9 49 -9 41 0 47 3 71 40 31 47 33
101 9 208 -19 80 -15 102 24 124 l29 16 -2 119 c-1 65 -4 125 -7 133 -3 12 11
15 83 15 48 1 90 4 93 7 4 4 11 25 16 48 5 23 30 94 55 158 l46 116 -23 42
-23 43 41 44 c24 26 47 64 54 89 14 50 17 156 5 209 -8 35 -7 37 43 72 28 20
76 68 108 106 47 59 67 75 126 101 l69 31 37 -25 c73 -51 109 -24 60 43 -39
55 -37 79 11 126 32 31 40 46 40 75 0 56 -20 84 -65 93 -22 5 -61 13 -87 18
-34 8 -53 7 -68 -1 -32 -17 -37 -4 -10 32 28 38 30 77 6 113 -15 23 -23 26
-48 21 l-29 -6 20 29 c12 16 21 31 21 34 0 2 -24 17 -54 32 -67 34 -84 29
-152 -40 l-51 -53 -53 9 c-29 4 -60 15 -70 24 -41 37 -127 -7 -176 -91 -35
-59 -63 -81 -124 -96 -51 -12 -57 -17 -82 -63 -18 -34 -43 -61 -80 -85 -43
-29 -54 -42 -58 -70 -6 -38 -35 -60 -83 -60 -15 0 -39 -7 -53 -17 -20 -13 -32
-14 -59 -6 -43 14 -58 -1 -53 -54 3 -36 6 -39 48 -51 74 -22 75 -23 75 -93 l0
-64 -65 -13 c-36 -7 -102 -22 -147 -34 -79 -20 -83 -20 -130 -3 -48 17 -49 17
-110 -9 -72 -30 -102 -32 -145 -10 -17 9 -42 14 -57 11 -33 -7 -86 15 -100 41
-6 11 -12 74 -14 141 -3 78 -9 126 -17 136 -17 21 -62 19 -129 -5 l-56 -21 0
-67 c0 -55 -4 -73 -22 -96 -29 -36 -29 -57 0 -87 24 -24 47 -95 47 -142 0 -40
-32 -58 -120 -69 -76 -10 -83 -9 -110 11 -34 25 -48 26 -74 6 -27 -20 -44 -19
-91 6 -26 14 -61 22 -103 24 -56 2 -66 5 -86 30 -19 24 -27 26 -55 20 -23 -5
-50 0 -94 16 -73 26 -107 54 -107 86 0 19 -12 29 -62 53 -65 31 -117 37 -164
20 -45 -18 -151 -29 -188 -20 -20 4 -46 20 -57 34 -11 14 -29 26 -39 26 -10 0
-44 14 -75 30 -31 17 -70 30 -86 30 -42 0 -105 35 -166 90 -34 32 -77 57 -122
75 -38 14 -75 33 -81 41 -7 8 -24 14 -39 14 -15 0 -41 12 -59 28 l-32 27 40
125 c43 133 66 167 152 227 21 14 38 34 38 43 0 22 -67 63 -128 79 -32 9 -48
21 -67 51 -31 49 -54 65 -132 91 -43 14 -70 30 -85 50 -72 94 -73 95 -102 76
-15 -10 -31 -15 -36 -12 -6 3 -10 32 -10 63 -1 77 -15 136 -45 180 -28 41 -33
93 -10 112 17 14 35 5 35 -19 0 -19 39 -61 57 -61 6 0 26 12 44 28 18 15 51
36 73 47 49 24 56 51 27 99 -12 19 -21 50 -21 74 0 43 -25 72 -61 72 -9 0 -27
8 -39 18 -19 16 -20 20 -8 47 7 17 13 52 13 80 l0 49 42 -3 c51 -3 77 19 93
78 7 28 19 45 39 55 36 19 84 73 98 112 26 70 53 162 53 182 0 26 -52 87 -91
108 -15 7 -39 14 -53 14 -14 0 -40 9 -58 20 -39 23 -66 25 -92 5 -12 -9 -42
-15 -77 -15 -44 0 -68 -6 -110 -30 -93 -51 -133 -69 -177 -76 -41 -6 -43 -5
-53 25 -13 37 -35 51 -81 51 -45 0 -73 22 -96 74 -20 43 -58 79 -168 154 -33
23 -87 74 -119 113 -43 52 -62 68 -74 62 -19 -9 -95 -8 -131 1 -16 3 -50 -4
-90 -19z"/>
<path d="M3496 882 c-3 -6 8 -12 24 -14 19 -3 29 -1 27 6 -5 14 -43 20 -51 8z"/>
</g>
</svg>
